<svg xmlns="http://www.w3.org/2000/svg" viewBox="0 0 495.66 126.234" height="477.106" width="1873.362"><defs><filter id="a" x="0" width="1" y="0" height="1" color-interpolation-filters="sRGB"><feGaussianBlur/></filter></defs><g font-weight="400" font-family="Hack"><g font-size="69.126" stroke-width="1.728"><g style="line-height:1.25;-inkscape-font-specification:'Hack, Normal';font-variant-ligatures:normal;font-variant-caps:normal;font-variant-numeric:normal;font-variant-east-asian:normal" aria-label="alganet.dev"><path style="-inkscape-font-specification:'Monoid HalfTight, Bold Semi-Condensed';font-variant-ligatures:normal;font-variant-caps:normal;font-variant-numeric:normal;font-variant-east-asian:normal" d="M33.85 72.325h-5.053q-3.641 0-5.276 2.133-1.56 2.06-1.56 6.546 0 2.501 1.188 4.193 1.19 1.618 3.419 1.618 2.527 0 4.087-1.25 1.635-1.25 2.23-3.53.669-2.355.817-3.973.149-1.618.149-4.045zm-2.377-45.532q6.39 0 11.221 1.986 4.831 1.913 7.952 7.356 2.23 3.898 2.23 12.063v55.094H33.85v-3.899h-.743q-4.162 5.076-10.553 5.076-7.878 0-13.749-6.694-5.87-6.693-5.87-16.624 0-10.812 6.54-17.8 2.377-2.501 5.053-4.046 2.75-1.618 5.573-2.206 2.899-.589 4.608-.736 1.784-.147 4.236-.147h4.905v-7.65q0-1.471-1.264-2.722-1.263-1.324-3.27-1.324-6.836 0-19.247 1.398V28.191q12.262-1.398 21.403-1.398z" font-weight="700" font-stretch="semi-condensed" font-size="61.425" font-family="Monoid HalfTight"/><path style="-inkscape-font-specification:'Monoid HalfTight, Bold Semi-Condensed';font-variant-ligatures:normal;font-variant-caps:normal;font-variant-numeric:normal;font-variant-east-asian:normal" d="M95.148 105.598q-7.952 1.103-14.27 1.103-5.944 0-10.85-2.133-4.83-2.133-7.877-5.811-2.378-2.795-3.567-6.547-1.189-3.751-1.338-6.252-.148-2.5-.148-6.914V20.052H38.073V1.957h38.05v76.351q0 5.443 1.114 8.091 1.19 2.648 4.385 2.648 5.276 0 13.526-1.103z" font-weight="700" font-stretch="semi-condensed" font-size="61.425" font-family="Monoid HalfTight"/><path style="-inkscape-font-specification:'Monoid HalfTight, Bold Semi-Condensed';font-variant-ligatures:normal;font-variant-caps:normal;font-variant-numeric:normal;font-variant-east-asian:normal" d="M119.782 89.096h-.743q-4.31 5.958-10.404 5.958-8.25 0-12.708-5.958-7.06-9.342-7.06-28.173 0-18.83 7.06-28.172 4.459-5.958 12.708-5.958 6.094 0 10.404 5.958h.743v-4.78h19.025v63.552q0 12.578-4.533 20.08-3.344 5.444-9.513 8.533-6.168 3.163-14.937 3.163-8.62 0-17.539-1.103v-17.654q10.033 1.104 17.539 1.104 5.35 0 7.654-4.046 2.304-4.045 2.304-10.077zm-9.438-42.442q-2.452 3.75-2.452 14.27 0 10.518 2.452 14.27 1.412 2.206 3.493 2.206 2.08 0 3.493-2.207 2.452-3.751 2.452-14.27 0-10.518-2.452-14.27-1.412-2.206-3.493-2.206t-3.493 2.207zM173.361 72.325h-5.053q-3.642 0-5.277 2.133-1.56 2.06-1.56 6.546 0 2.501 1.189 4.193 1.189 1.618 3.418 1.618 2.527 0 4.088-1.25 1.635-1.25 2.23-3.53.668-2.355.817-3.973.148-1.618.148-4.045zm-2.378-45.532q6.391 0 11.222 1.986 4.83 1.913 7.952 7.356 2.23 3.898 2.23 12.063v55.094H173.36v-3.899h-.743q-4.162 5.076-10.553 5.076-7.877 0-13.748-6.694-5.871-6.693-5.871-16.624 0-10.812 6.54-17.8 2.378-2.501 5.053-4.046 2.75-1.618 5.574-2.206 2.898-.589 4.607-.736 1.784-.147 4.236-.147h4.905v-7.65q0-1.471-1.263-2.722-1.264-1.324-3.27-1.324-6.837 0-19.248 1.398V28.191q12.262-1.398 21.403-1.398zM228.037 26.793q7.951 0 12.856 7.87 1.784 2.943 2.676 6.768.966 3.825 1.04 6.4.149 2.5.149 7.134v48.327h-19.025V54.965q0-5.958-1.115-8.017-1.412-2.501-3.641-2.501-2.23 0-3.642 2.5-1.115 2.06-1.115 8.018v48.327h-19.025V27.97h19.025v4.56h.52q2.081-2.647 5.128-4.192 3.047-1.545 6.169-1.545zM274.753 26.793q8.62 0 14.714 4.193 6.094 4.12 8.695 10.592 1.264 3.163 1.858 7.43.67 4.266.743 7.576.15 3.236.15 9.047v8.827h-33.22q0 6.031 1.115 8.459 1.932 3.898 7.431 3.898 8.1 0 22.295-1.47v17.58q-13.526 1.544-22.295 1.544-9.215 0-15.532-4.266-6.317-4.267-9.14-11.107-1.933-4.634-2.453-9.93-.52-5.297-.52-13.535 0-8.459.446-13.902.52-5.517 2.303-10.15 2.453-6.547 8.547-10.666 6.168-4.12 14.863-4.12zm0 17.654q-1.264 0-2.304.294-1.04.22-1.784.956-.668.662-1.189 1.25-.52.516-.891 1.84-.298 1.25-.52 1.986-.15.735-.298 2.5-.074 1.692-.074 2.428 0 .662-.075 2.574h14.27q-.15-7.576-1.19-10.003-1.486-3.825-5.945-3.825z" font-weight="700" font-stretch="semi-condensed" font-size="61.425" font-family="Monoid HalfTight"/><path style="-inkscape-font-specification:'Monoid HalfTight, Bold Semi-Condensed';font-variant-ligatures:normal;font-variant-caps:normal;font-variant-numeric:normal;font-variant-east-asian:normal" d="M346.068 103.366q-7.952 1.103-14.269 1.103-5.945 0-10.85-2.133-4.83-2.133-7.877-5.811-2.379-2.795-3.568-6.547-1.189-3.751-1.337-6.252-.149-2.501-.149-6.914V46.065h-19.025V27.97h19.025V9.14h19.025v18.83h19.025v18.095h-19.025v30.011q0 5.443 1.115 8.091 1.189 2.648 4.384 2.648 5.277 0 13.526-1.103z" font-weight="700" font-stretch="semi-condensed" font-size="61.425" font-family="Monoid HalfTight"/><path d="M353.38 85.568h19.668v18.25H353.38z" font-size="42.333"/><path style="-inkscape-font-specification:'Monoid HalfTight, Bold Semi-Condensed';font-variant-ligatures:normal;font-variant-caps:normal;font-variant-numeric:normal;font-variant-east-asian:normal" d="M391.554 52.122q5.942 0 8.554 4.106h.41V33.466h13.111v71.378h-13.112v-3.295h-.41q-2.611 4.106-8.553 4.106-3.892 0-6.914-3.143-2.97-3.194-4.354-8.872-1.075-4.562-1.075-14.752 0-10.19 1.075-14.752 1.383-5.677 4.354-8.82 3.022-3.194 6.914-3.194zm7.12 13.738q-.922-1.572-2.254-1.572-1.332 0-2.254 1.572-.922 1.52-1.331 3.853-.512 2.737-.512 9.175 0 6.439.512 9.176.41 2.332 1.331 3.904.922 1.52 2.254 1.52 1.332 0 2.254-1.52.921-1.572 1.331-3.904.512-2.737.512-9.176 0-6.438-.512-9.175-.41-2.332-1.331-3.853zM434.249 52.122q5.941 0 10.141 2.89 4.2 2.838 5.993 7.3.87 2.18 1.28 5.12.461 2.94.512 5.221.103 2.23.103 6.235v6.084h-22.895q0 4.157.769 5.83 1.331 2.686 5.121 2.686 5.583 0 15.366-1.013v12.115q-9.322 1.065-15.366 1.065-6.35 0-10.704-2.94-4.354-2.94-6.3-7.655-1.332-3.194-1.69-6.844-.359-3.65-.359-9.328 0-5.83.308-9.58.358-3.803 1.587-6.997 1.69-4.511 5.89-7.35 4.252-2.84 10.244-2.84zm0 12.166q-.87 0-1.588.203-.717.152-1.229.66-.46.456-.82.861-.358.355-.614 1.267-.205.862-.359 1.37-.102.506-.204 1.723-.052 1.166-.052 1.673 0 .456-.051 1.774h9.834q-.103-5.222-.82-6.894-1.024-2.637-4.097-2.637zM464.76 52.933q2.869 23.167 7.12 40.91h.512q4.251-17.793 7.12-40.91h13.213q-3.943 29.859-10.448 51.91h-20.282q-6.505-22.051-10.449-51.91z" font-weight="700" font-stretch="semi-condensed" font-size="42.333" font-family="Monoid HalfTight"/></g><g style="line-height:1.25;-inkscape-font-specification:'Hack, Normal';font-variant-ligatures:normal;font-variant-caps:normal;font-variant-numeric:normal;font-variant-east-asian:normal" aria-label="alganet.dev"><path style="-inkscape-font-specification:'Monoid HalfTight, Bold Semi-Condensed';font-variant-ligatures:normal;font-variant-caps:normal;font-variant-numeric:normal;font-variant-east-asian:normal" d="M34.83 73.303h-5.054q-3.642 0-5.277 2.133-1.56 2.06-1.56 6.547 0 2.5 1.189 4.192 1.189 1.619 3.418 1.619 2.527 0 4.088-1.25 1.635-1.251 2.23-3.531.668-2.354.817-3.973.148-1.618.148-4.045zM32.45 27.772q6.391 0 11.222 1.986 4.83 1.912 7.952 7.355 2.23 3.899 2.23 12.064v55.093H34.828v-3.898h-.743q-4.162 5.075-10.553 5.075-7.877 0-13.748-6.693Q3.914 92.06 3.914 82.13q0-10.813 6.54-17.8 2.378-2.502 5.053-4.046 2.75-1.619 5.574-2.207 2.898-.589 4.607-.736 1.784-.147 4.236-.147h4.905v-7.65q0-1.47-1.263-2.721-1.264-1.324-3.27-1.324-6.837 0-19.248 1.397V29.17q12.262-1.397 21.403-1.397z" font-weight="700" font-stretch="semi-condensed" font-size="61.425" font-family="Monoid HalfTight"/><path style="-inkscape-font-specification:'Monoid HalfTight, Bold Semi-Condensed';font-variant-ligatures:normal;font-variant-caps:normal;font-variant-numeric:normal;font-variant-east-asian:normal" d="M96.126 106.576q-7.952 1.103-14.269 1.103-5.945 0-10.85-2.133-4.83-2.133-7.877-5.81-2.378-2.796-3.568-6.547-1.189-3.752-1.337-6.253-.149-2.5-.149-6.914V21.03H39.051V2.935h38.05v76.352q0 5.443 1.115 8.09 1.189 2.649 4.384 2.649 5.277 0 13.526-1.104z" font-weight="700" font-stretch="semi-condensed" font-size="61.425" font-family="Monoid HalfTight"/><path style="-inkscape-font-specification:'Monoid HalfTight, Bold Semi-Condensed';font-variant-ligatures:normal;font-variant-caps:normal;font-variant-numeric:normal;font-variant-east-asian:normal" d="M120.76 90.074h-.743q-4.31 5.958-10.404 5.958-8.249 0-12.708-5.958-7.06-9.342-7.06-28.172t7.06-28.172q4.459-5.958 12.708-5.958 6.094 0 10.404 5.958h.743v-4.781h19.025V92.5q0 12.578-4.533 20.081-3.344 5.443-9.512 8.533-6.169 3.163-14.938 3.163-8.62 0-17.538-1.104v-17.653q10.032 1.103 17.538 1.103 5.35 0 7.655-4.046 2.303-4.045 2.303-10.077zm-9.438-42.442q-2.452 3.751-2.452 14.27 0 10.518 2.452 14.27 1.412 2.206 3.493 2.206t3.493-2.206q2.452-3.752 2.452-14.27 0-10.519-2.452-14.27-1.412-2.207-3.493-2.207-2.08 0-3.493 2.207zM174.34 73.303h-5.054q-3.641 0-5.276 2.133-1.561 2.06-1.561 6.547 0 2.5 1.189 4.192 1.19 1.619 3.419 1.619 2.526 0 4.087-1.25 1.635-1.251 2.23-3.531.668-2.354.817-3.973.149-1.618.149-4.045zm-2.379-45.531q6.392 0 11.222 1.986 4.83 1.912 7.952 7.355 2.23 3.899 2.23 12.064v55.093H174.34v-3.898h-.744q-4.161 5.075-10.552 5.075-7.878 0-13.749-6.693-5.87-6.694-5.87-16.624 0-10.813 6.539-17.8 2.378-2.502 5.053-4.046 2.75-1.619 5.574-2.207 2.898-.589 4.608-.736 1.783-.147 4.236-.147h4.905v-7.65q0-1.47-1.264-2.721-1.263-1.324-3.27-1.324-6.837 0-19.248 1.397V29.17q12.263-1.397 21.403-1.397zM229.015 27.772q7.952 0 12.856 7.87 1.784 2.942 2.676 6.767.966 3.825 1.04 6.4.149 2.5.149 7.135v48.326h-19.025V55.944q0-5.958-1.115-8.018-1.412-2.5-3.641-2.5-2.23 0-3.642 2.5-1.114 2.06-1.114 8.018v48.326h-19.025V28.95h19.025v4.56h.52q2.08-2.648 5.128-4.193 3.047-1.544 6.168-1.544zM275.731 27.772q8.62 0 14.715 4.192 6.094 4.12 8.695 10.593 1.263 3.162 1.858 7.429.668 4.266.743 7.576.148 3.236.148 9.047v8.827h-33.219q0 6.032 1.115 8.46 1.932 3.898 7.432 3.898 8.1 0 22.294-1.471v17.58q-13.525 1.544-22.294 1.544-9.216 0-15.533-4.266-6.316-4.266-9.14-11.107-1.933-4.634-2.453-9.93-.52-5.296-.52-13.535 0-8.459.446-13.902.52-5.516 2.304-10.15 2.452-6.547 8.546-10.666 6.168-4.12 14.863-4.12zm0 17.653q-1.263 0-2.304.294-1.04.221-1.783.957-.67.662-1.19 1.25-.52.515-.891 1.839-.297 1.25-.52 1.986-.149.736-.298 2.501-.074 1.692-.074 2.427 0 .662-.074 2.575h14.268q-.148-7.577-1.189-10.004-1.486-3.825-5.945-3.825z" font-weight="700" font-stretch="semi-condensed" font-size="61.425" font-family="Monoid HalfTight"/><path style="-inkscape-font-specification:'Monoid HalfTight, Bold Semi-Condensed';font-variant-ligatures:normal;font-variant-caps:normal;font-variant-numeric:normal;font-variant-east-asian:normal" d="M347.046 104.344q-7.952 1.103-14.268 1.103-5.946 0-10.85-2.133-4.831-2.133-7.878-5.81-2.378-2.796-3.567-6.547-1.19-3.752-1.338-6.253-.149-2.5-.149-6.914V47.043h-19.025V28.95h19.025v-18.83h19.025v18.83h19.025v18.094h-19.025v30.011q0 5.444 1.115 8.092 1.189 2.648 4.385 2.648 5.276 0 13.525-1.104z" font-weight="700" font-stretch="semi-condensed" font-size="61.425" font-family="Monoid HalfTight"/><path d="M354.359 86.547h19.667v18.25H354.36z" font-size="42.333"/><path style="-inkscape-font-specification:'Monoid HalfTight, Bold Semi-Condensed';font-variant-ligatures:normal;font-variant-caps:normal;font-variant-numeric:normal;font-variant-east-asian:normal" d="M392.533 53.1q5.94 0 8.553 4.106h.41V34.445h13.111v71.377h-13.111v-3.295h-.41q-2.612 4.106-8.553 4.106-3.893 0-6.915-3.143-2.97-3.193-4.353-8.871-1.076-4.563-1.076-14.752 0-10.19 1.076-14.752 1.383-5.678 4.353-8.821 3.022-3.194 6.915-3.194zm7.119 13.738q-.922-1.571-2.254-1.571-1.331 0-2.253 1.571-.922 1.521-1.332 3.853-.512 2.738-.512 9.176 0 6.438.512 9.175.41 2.332 1.332 3.904.922 1.52 2.253 1.52 1.332 0 2.254-1.52.922-1.572 1.332-3.904.512-2.737.512-9.175 0-6.438-.512-9.176-.41-2.332-1.332-3.853zM435.227 53.1q5.942 0 10.141 2.89 4.2 2.839 5.993 7.3.87 2.18 1.28 5.12.461 2.94.513 5.221.102 2.23.102 6.236v6.083h-22.894q0 4.157.768 5.83 1.332 2.687 5.122 2.687 5.582 0 15.365-1.014v12.116q-9.322 1.064-15.365 1.064-6.351 0-10.705-2.94-4.353-2.94-6.3-7.655-1.331-3.193-1.69-6.843-.358-3.65-.358-9.328 0-5.83.307-9.581.358-3.803 1.588-6.996 1.69-4.512 5.89-7.35 4.25-2.84 10.243-2.84zm0 12.167q-.87 0-1.587.203-.717.152-1.23.659-.46.456-.82.861-.358.355-.614 1.268-.205.862-.358 1.369-.103.506-.205 1.723-.051 1.166-.051 1.673 0 .456-.052 1.774h9.834q-.102-5.221-.82-6.894-1.024-2.636-4.097-2.636zM465.739 53.911q2.868 23.168 7.119 40.91h.512q4.251-17.793 7.12-40.91h13.214q-3.944 29.86-10.449 51.911h-20.282q-6.505-22.052-10.448-51.91z" font-weight="700" font-stretch="semi-condensed" font-size="42.333" font-family="Monoid HalfTight"/></g><g style="line-height:1.25;-inkscape-font-specification:'Hack, Normal';font-variant-ligatures:normal;font-variant-caps:normal;font-variant-numeric:normal;font-variant-east-asian:normal" aria-label="alganet.dev"><path style="-inkscape-font-specification:'Monoid HalfTight, Bold Semi-Condensed';font-variant-ligatures:normal;font-variant-caps:normal;font-variant-numeric:normal;font-variant-east-asian:normal" d="M35.807 74.281h-5.053q-3.641 0-5.276 2.134-1.561 2.06-1.561 6.546 0 2.501 1.189 4.193 1.189 1.618 3.419 1.618 2.526 0 4.087-1.25 1.635-1.25 2.23-3.531.668-2.354.817-3.972.149-1.618.149-4.046zM33.43 28.75q6.392 0 11.222 1.986 4.83 1.913 7.952 7.356 2.23 3.898 2.23 12.063v55.094H35.806v-3.899h-.743q-4.161 5.076-10.553 5.076-7.877 0-13.748-6.694-5.87-6.694-5.87-16.624 0-10.813 6.539-17.8 2.378-2.501 5.053-4.046 2.75-1.618 5.574-2.207 2.898-.588 4.608-.735 1.783-.147 4.236-.147h4.904v-7.65q0-1.471-1.263-2.722-1.263-1.324-3.27-1.324-6.837 0-19.248 1.398V30.148Q24.29 28.75 33.43 28.75z" font-weight="700" font-stretch="semi-condensed" font-size="61.425" font-family="Monoid HalfTight"/><path style="-inkscape-font-specification:'Monoid HalfTight, Bold Semi-Condensed';font-variant-ligatures:normal;font-variant-caps:normal;font-variant-numeric:normal;font-variant-east-asian:normal" d="M97.104 107.554q-7.952 1.104-14.268 1.104-5.946 0-10.85-2.133-4.831-2.134-7.878-5.811-2.378-2.796-3.567-6.547-1.19-3.751-1.338-6.252-.149-2.501-.149-6.915V22.008H40.03V3.913h38.05v76.352q0 5.443 1.114 8.091 1.19 2.648 4.385 2.648 5.276 0 13.525-1.103z" font-weight="700" font-stretch="semi-condensed" font-size="61.425" font-family="Monoid HalfTight"/><path style="-inkscape-font-specification:'Monoid HalfTight, Bold Semi-Condensed';font-variant-ligatures:normal;font-variant-caps:normal;font-variant-numeric:normal;font-variant-east-asian:normal" d="M121.739 91.052h-.743q-4.31 5.958-10.405 5.958-8.249 0-12.708-5.958-7.06-9.341-7.06-28.172 0-18.83 7.06-28.172 4.46-5.958 12.708-5.958 6.094 0 10.405 5.958h.743v-4.781h19.025V93.48q0 12.578-4.534 20.08-3.344 5.444-9.512 8.533-6.168 3.163-14.938 3.163-8.62 0-17.538-1.103v-17.654q10.033 1.103 17.538 1.103 5.351 0 7.655-4.045 2.304-4.046 2.304-10.077zM112.3 48.61q-2.453 3.752-2.453 14.27 0 10.519 2.453 14.27 1.412 2.207 3.492 2.207 2.081 0 3.493-2.207 2.453-3.751 2.453-14.27 0-10.518-2.453-14.27-1.412-2.206-3.493-2.206-2.08 0-3.492 2.206zM175.318 74.281h-5.054q-3.641 0-5.276 2.134-1.56 2.06-1.56 6.546 0 2.501 1.188 4.193 1.19 1.618 3.419 1.618 2.527 0 4.087-1.25 1.635-1.25 2.23-3.531.669-2.354.817-3.972.149-1.618.149-4.046zM172.94 28.75q6.39 0 11.221 1.986 4.831 1.913 7.952 7.356 2.23 3.898 2.23 12.063v55.094h-19.025v-3.899h-.743q-4.162 5.076-10.553 5.076-7.878 0-13.749-6.694-5.87-6.694-5.87-16.624 0-10.813 6.54-17.8 2.377-2.501 5.053-4.046 2.75-1.618 5.573-2.207 2.899-.588 4.608-.735 1.784-.147 4.236-.147h4.905v-7.65q0-1.471-1.264-2.722-1.263-1.324-3.27-1.324-6.836 0-19.247 1.398V30.148q12.262-1.398 21.403-1.398zM229.993 28.75q7.952 0 12.857 7.87 1.783 2.943 2.675 6.768.966 3.825 1.04 6.4.15 2.5.15 7.134v48.327h-19.026V56.922q0-5.958-1.114-8.018-1.412-2.5-3.642-2.5t-3.641 2.5q-1.115 2.06-1.115 8.018v48.327h-19.025V29.927h19.025v4.56h.52q2.081-2.648 5.128-4.192 3.047-1.545 6.168-1.545zM276.71 28.75q8.62 0 14.714 4.193 6.094 4.119 8.695 10.592 1.263 3.163 1.858 7.429.669 4.266.743 7.576.149 3.237.149 9.048v8.827h-33.22q0 6.031 1.115 8.459 1.932 3.898 7.432 3.898 8.1 0 22.295-1.471v17.58q-13.526 1.545-22.295 1.545-9.215 0-15.532-4.267-6.317-4.266-9.141-11.107-1.932-4.634-2.453-9.93-.52-5.296-.52-13.534 0-8.46.446-13.902.52-5.517 2.304-10.151 2.452-6.547 8.546-10.666 6.168-4.119 14.863-4.119zm0 17.654q-1.264 0-2.304.294-1.04.22-1.784.956-.669.662-1.189 1.25-.52.515-.892 1.84-.297 1.25-.52 1.985-.149.736-.297 2.501-.075 1.692-.075 2.428 0 .662-.074 2.574h14.269q-.149-7.576-1.19-10.004-1.486-3.824-5.945-3.824z" font-weight="700" font-stretch="semi-condensed" font-size="61.425" font-family="Monoid HalfTight"/><path style="-inkscape-font-specification:'Monoid HalfTight, Bold Semi-Condensed';font-variant-ligatures:normal;font-variant-caps:normal;font-variant-numeric:normal;font-variant-east-asian:normal" d="M348.024 105.322q-7.951 1.104-14.268 1.104-5.945 0-10.85-2.134-4.83-2.133-7.878-5.81-2.378-2.796-3.567-6.547t-1.338-6.252q-.148-2.501-.148-6.915V48.022H290.95V29.927h19.025v-18.83H329v18.83h19.024v18.095H329v30.01q0 5.444 1.114 8.092 1.19 2.648 4.385 2.648 5.276 0 13.525-1.103z" font-weight="700" font-stretch="semi-condensed" font-size="61.425" font-family="Monoid HalfTight"/><path d="M355.337 87.525h19.668v18.25h-19.668z" font-size="42.333"/><path style="-inkscape-font-specification:'Monoid HalfTight, Bold Semi-Condensed';font-variant-ligatures:normal;font-variant-caps:normal;font-variant-numeric:normal;font-variant-east-asian:normal" d="M393.51 54.079q5.942 0 8.554 4.106h.41V35.423h13.112v71.378h-13.112v-3.296h-.41q-2.612 4.107-8.553 4.107-3.893 0-6.914-3.143-2.971-3.194-4.354-8.872-1.076-4.562-1.076-14.752 0-10.19 1.076-14.752 1.383-5.678 4.354-8.82 3.021-3.194 6.914-3.194zm7.12 13.738q-.922-1.572-2.253-1.572-1.332 0-2.254 1.572-.922 1.52-1.332 3.852-.512 2.738-.512 9.176 0 6.438.512 9.176.41 2.332 1.332 3.903.922 1.521 2.254 1.521 1.331 0 2.253-1.52.922-1.572 1.332-3.904.512-2.738.512-9.176 0-6.438-.512-9.176-.41-2.331-1.332-3.852zM436.206 54.079q5.941 0 10.14 2.89 4.2 2.838 5.993 7.3.871 2.179 1.28 5.12.462 2.94.513 5.22.102 2.231.102 6.236v6.083H431.34q0 4.157.768 5.83 1.332 2.687 5.122 2.687 5.583 0 15.365-1.014v12.116q-9.321 1.065-15.365 1.065-6.351 0-10.705-2.94-4.353-2.94-6.3-7.655-1.331-3.194-1.69-6.844-.358-3.65-.358-9.328 0-5.83.307-9.581.359-3.802 1.588-6.996 1.69-4.512 5.89-7.35 4.251-2.84 10.244-2.84zm0 12.166q-.871 0-1.588.203-.717.152-1.23.659-.46.456-.819.862-.358.355-.614 1.267-.205.862-.359 1.369-.102.507-.205 1.723-.051 1.166-.051 1.673 0 .457-.051 1.775h9.833q-.102-5.222-.819-6.895-1.024-2.636-4.097-2.636zM466.717 54.89q2.868 23.167 7.12 40.91h.512q4.25-17.794 7.119-40.91h13.214q-3.944 29.859-10.448 51.91H463.95q-6.504-22.051-10.448-51.91z" font-weight="700" font-stretch="semi-condensed" font-size="42.333" font-family="Monoid HalfTight"/></g><g style="line-height:1.25;-inkscape-font-specification:'Hack, Normal';font-variant-ligatures:normal;font-variant-caps:normal;font-variant-numeric:normal;font-variant-east-asian:normal" aria-label="alganet.dev"><path style="-inkscape-font-specification:'Monoid HalfTight, Bold Semi-Condensed';font-variant-ligatures:normal;font-variant-caps:normal;font-variant-numeric:normal;font-variant-east-asian:normal" d="M36.786 75.26h-5.054q-3.641 0-5.276 2.133-1.56 2.06-1.56 6.546 0 2.501 1.188 4.193 1.19 1.618 3.419 1.618 2.527 0 4.087-1.25 1.635-1.25 2.23-3.53.669-2.355.817-3.973.149-1.618.149-4.045zm-2.378-45.532q6.39 0 11.221 1.986 4.831 1.913 7.952 7.356 2.23 3.899 2.23 12.063v55.094H36.786v-3.899h-.743q-4.162 5.076-10.553 5.076-7.878 0-13.749-6.694-5.87-6.693-5.87-16.623 0-10.813 6.54-17.801 2.377-2.501 5.053-4.046 2.75-1.618 5.573-2.206 2.899-.589 4.608-.736 1.784-.147 4.236-.147h4.905V51.5q0-1.471-1.264-2.722-1.263-1.324-3.27-1.324-6.837 0-19.247 1.398V31.126q12.262-1.398 21.403-1.398z" font-weight="700" font-stretch="semi-condensed" font-size="61.425" font-family="Monoid HalfTight"/><path style="-inkscape-font-specification:'Monoid HalfTight, Bold Semi-Condensed';font-variant-ligatures:normal;font-variant-caps:normal;font-variant-numeric:normal;font-variant-east-asian:normal" d="M98.083 108.533q-7.952 1.103-14.27 1.103-5.944 0-10.85-2.133-4.83-2.133-7.877-5.811-2.378-2.795-3.567-6.547-1.189-3.751-1.338-6.252-.148-2.5-.148-6.914V22.987H41.008V4.892h38.05v76.351q0 5.443 1.114 8.091 1.19 2.648 4.385 2.648 5.276 0 13.526-1.103z" font-weight="700" font-stretch="semi-condensed" font-size="61.425" font-family="Monoid HalfTight"/><path style="-inkscape-font-specification:'Monoid HalfTight, Bold Semi-Condensed';font-variant-ligatures:normal;font-variant-caps:normal;font-variant-numeric:normal;font-variant-east-asian:normal" d="M122.717 92.03h-.743q-4.31 5.959-10.404 5.959-8.25 0-12.708-5.958-7.06-9.342-7.06-28.172t7.06-28.173q4.459-5.958 12.708-5.958 6.094 0 10.404 5.958h.743v-4.78h19.025v63.552q0 12.578-4.533 20.08-3.345 5.444-9.513 8.533-6.168 3.163-14.937 3.163-8.62 0-17.539-1.103v-17.654q10.033 1.104 17.539 1.104 5.35 0 7.654-4.046 2.304-4.045 2.304-10.077zM113.28 49.59q-2.452 3.751-2.452 14.27 0 10.518 2.452 14.27 1.412 2.206 3.493 2.206 2.08 0 3.493-2.207 2.452-3.75 2.452-14.27 0-10.518-2.452-14.27-1.412-2.206-3.493-2.206t-3.493 2.207zM176.296 75.26h-5.053q-3.642 0-5.277 2.133-1.56 2.06-1.56 6.546 0 2.501 1.189 4.193 1.189 1.618 3.418 1.618 2.527 0 4.088-1.25 1.635-1.25 2.23-3.53.668-2.355.817-3.973.148-1.618.148-4.045zm-2.378-45.532q6.391 0 11.222 1.986 4.83 1.913 7.952 7.356 2.23 3.899 2.23 12.063v55.094h-19.026v-3.899h-.743q-4.162 5.076-10.553 5.076-7.877 0-13.748-6.694-5.871-6.693-5.871-16.623 0-10.813 6.54-17.801 2.378-2.501 5.053-4.046 2.75-1.618 5.574-2.206 2.898-.589 4.607-.736 1.784-.147 4.236-.147h4.905V51.5q0-1.471-1.263-2.722-1.264-1.324-3.27-1.324-6.837 0-19.248 1.398V31.126q12.262-1.398 21.403-1.398zM230.972 29.728q7.951 0 12.856 7.87 1.784 2.943 2.676 6.768.966 3.825 1.04 6.4.149 2.5.149 7.134v48.327h-19.025V57.9q0-5.958-1.115-8.017-1.412-2.501-3.641-2.501-2.23 0-3.642 2.5-1.115 2.06-1.115 8.018v48.327H200.13V30.905h19.025v4.56h.52q2.081-2.647 5.128-4.192 3.047-1.545 6.169-1.545zM277.688 29.728q8.62 0 14.714 4.193 6.094 4.12 8.695 10.592 1.264 3.163 1.858 7.43.67 4.266.743 7.576.15 3.236.15 9.047v8.827h-33.22q0 6.032 1.115 8.459 1.932 3.898 7.431 3.898 8.1 0 22.295-1.47v17.58q-13.526 1.544-22.295 1.544-9.215 0-15.532-4.266-6.317-4.267-9.14-11.107-1.933-4.634-2.453-9.93-.52-5.297-.52-13.535 0-8.459.446-13.902.52-5.517 2.303-10.15 2.453-6.547 8.547-10.666 6.168-4.12 14.863-4.12zm0 17.654q-1.264 0-2.304.294-1.04.22-1.784.956-.668.662-1.189 1.25-.52.516-.891 1.84-.298 1.25-.52 1.986-.15.735-.298 2.5-.074 1.692-.074 2.428 0 .662-.075 2.574h14.27q-.15-7.576-1.19-10.003-1.486-3.825-5.945-3.825z" font-weight="700" font-stretch="semi-condensed" font-size="61.425" font-family="Monoid HalfTight"/><path style="-inkscape-font-specification:'Monoid HalfTight, Bold Semi-Condensed';font-variant-ligatures:normal;font-variant-caps:normal;font-variant-numeric:normal;font-variant-east-asian:normal" d="M349.003 106.3q-7.952 1.104-14.269 1.104-5.945 0-10.85-2.133-4.83-2.133-7.877-5.811-2.379-2.795-3.568-6.547-1.189-3.751-1.337-6.252-.149-2.5-.149-6.914V49h-19.025V30.905h19.025v-18.83h19.025v18.83h19.025V49h-19.025v30.011q0 5.443 1.115 8.091 1.189 2.648 4.384 2.648 5.277 0 13.526-1.103z" font-weight="700" font-stretch="semi-condensed" font-size="61.425" font-family="Monoid HalfTight"/><path d="M356.315 88.503h19.668v18.25h-19.668z" font-size="42.333"/><path style="-inkscape-font-specification:'Monoid HalfTight, Bold Semi-Condensed';font-variant-ligatures:normal;font-variant-caps:normal;font-variant-numeric:normal;font-variant-east-asian:normal" d="M394.49 55.057q5.94 0 8.553 4.106h.41V36.401h13.111v71.378h-13.112v-3.295h-.41q-2.611 4.106-8.553 4.106-3.892 0-6.914-3.143-2.97-3.194-4.354-8.872-1.075-4.562-1.075-14.752 0-10.19 1.075-14.752 1.383-5.677 4.354-8.82 3.022-3.194 6.914-3.194zm7.119 13.738q-.922-1.572-2.254-1.572-1.332 0-2.254 1.572-.922 1.52-1.331 3.853-.512 2.737-.512 9.175 0 6.439.512 9.176.41 2.332 1.331 3.904.922 1.52 2.254 1.52 1.332 0 2.254-1.52.921-1.572 1.331-3.904.512-2.737.512-9.176 0-6.438-.512-9.175-.41-2.332-1.331-3.853zM437.184 55.057q5.941 0 10.141 2.89 4.2 2.838 5.993 7.3.87 2.18 1.28 5.12.461 2.94.512 5.221.103 2.23.103 6.235v6.084h-22.895q0 4.157.769 5.83 1.331 2.686 5.121 2.686 5.583 0 15.366-1.013v12.115q-9.322 1.065-15.366 1.065-6.35 0-10.704-2.94-4.354-2.94-6.3-7.655-1.332-3.194-1.69-6.844-.359-3.65-.359-9.328 0-5.83.308-9.58.358-3.803 1.587-6.997 1.69-4.511 5.89-7.35 4.252-2.84 10.244-2.84zm0 12.166q-.87 0-1.588.203-.717.152-1.229.66-.46.456-.82.861-.358.355-.614 1.267-.205.862-.359 1.37-.102.506-.204 1.723-.052 1.166-.052 1.673 0 .456-.051 1.774h9.834q-.103-5.221-.82-6.894-1.024-2.637-4.097-2.637zM467.695 55.868q2.869 23.167 7.12 40.91h.512q4.25-17.793 7.12-40.91h13.213q-3.943 29.859-10.448 51.911H464.93q-6.505-22.052-10.449-51.911z" font-weight="700" font-stretch="semi-condensed" font-size="42.333" font-family="Monoid HalfTight"/></g><g style="line-height:1.25;-inkscape-font-specification:'Hack, Normal';font-variant-ligatures:normal;font-variant-caps:normal;font-variant-numeric:normal;font-variant-east-asian:normal" transform="matrix(1.85836 0 0 1.83937 -240.363 -424.587)" aria-label="alganet.dev" fill="#000" filter="url(#a)"><path style="-inkscape-font-specification:'Monoid HalfTight, Bold Semi-Condensed';font-variant-ligatures:normal;font-variant-caps:normal;font-variant-numeric:normal;font-variant-east-asian:normal" d="M146.504 269.622h-2.72q-1.959 0-2.839 1.16-.84 1.12-.84 3.559 0 1.36.64 2.28.64.88 1.84.88 1.36 0 2.2-.68.88-.68 1.2-1.92.36-1.28.44-2.16.08-.88.08-2.2zm-1.28-24.754q3.44 0 6.039 1.08 2.6 1.04 4.279 3.999 1.2 2.12 1.2 6.558v29.953h-10.238v-2.12h-.4q-2.24 2.76-5.678 2.76-4.24 0-7.399-3.64-3.159-3.638-3.159-9.037 0-5.879 3.52-9.678 1.279-1.36 2.719-2.2 1.48-.879 2.999-1.199 1.56-.32 2.48-.4.96-.08 2.279-.08h2.64v-4.159q0-.8-.68-1.48-.68-.72-1.76-.72-3.68 0-10.358.76v-9.637q6.599-.76 11.517-.76z" font-weight="700" font-stretch="semi-condensed" font-size="61.425" font-family="Monoid HalfTight"/><path style="-inkscape-font-specification:'Monoid HalfTight, Bold Semi-Condensed';font-variant-ligatures:normal;font-variant-caps:normal;font-variant-numeric:normal;font-variant-east-asian:normal" d="M179.488 287.711q-4.279.6-7.678.6-3.199 0-5.838-1.16-2.6-1.16-4.24-3.159-1.279-1.52-1.919-3.559-.64-2.04-.72-3.399-.08-1.36-.08-3.759v-32.072h-10.237v-9.838h20.475v41.51q0 2.96.6 4.399.64 1.44 2.36 1.44 2.838 0 7.277-.6z" font-weight="700" font-stretch="semi-condensed" font-size="61.425" font-family="Monoid HalfTight"/><path style="-inkscape-font-specification:'Monoid HalfTight, Bold Semi-Condensed';font-variant-ligatures:normal;font-variant-caps:normal;font-variant-numeric:normal;font-variant-east-asian:normal" d="M192.744 278.74h-.4q-2.319 3.239-5.598 3.239-4.439 0-6.838-3.24-3.8-5.078-3.8-15.315 0-10.238 3.8-15.317 2.399-3.239 6.838-3.239 3.28 0 5.599 3.24h.4v-2.6h10.237v34.551q0 6.839-2.44 10.918-1.8 2.959-5.118 4.639-3.32 1.72-8.038 1.72-4.64 0-9.438-.6v-9.598q5.399.6 9.438.6 2.88 0 4.119-2.2 1.24-2.2 1.24-5.479zm-5.078-23.074q-1.32 2.039-1.32 7.758 0 5.718 1.32 7.758.76 1.2 1.88 1.2 1.119 0 1.879-1.2 1.32-2.04 1.32-7.758 0-5.719-1.32-7.758-.76-1.2-1.88-1.2-1.12 0-1.88 1.2zM221.576 269.622h-2.72q-1.959 0-2.839 1.16-.84 1.12-.84 3.559 0 1.36.64 2.28.64.88 1.84.88 1.36 0 2.2-.68.879-.68 1.199-1.92.36-1.28.44-2.16.08-.88.08-2.2zm-1.28-24.754q3.44 0 6.039 1.08 2.599 1.04 4.279 3.999 1.2 2.12 1.2 6.558v29.953h-10.238v-2.12h-.4q-2.24 2.76-5.679 2.76-4.239 0-7.398-3.64-3.159-3.638-3.159-9.037 0-5.879 3.52-9.678 1.279-1.36 2.718-2.2 1.48-.879 3-1.199 1.56-.32 2.479-.4.96-.08 2.28-.08h2.639v-4.159q0-.8-.68-1.48-.68-.72-1.76-.72-3.679 0-10.357.76v-9.637q6.598-.76 11.517-.76zM250.997 244.868q4.279 0 6.918 4.28.96 1.599 1.44 3.678.52 2.08.56 3.48.08 1.36.08 3.878v26.274h-10.238v-26.274q0-3.239-.6-4.358-.76-1.36-1.959-1.36-1.2 0-1.96 1.36-.6 1.12-.6 4.358v26.274h-10.237v-40.95h10.238v2.48h.28q1.12-1.44 2.759-2.28 1.64-.84 3.32-.84zM276.135 244.868q4.64 0 7.919 2.28 3.279 2.24 4.678 5.758.68 1.72 1 4.04.36 2.319.4 4.118.08 1.76.08 4.919v4.799h-17.876q0 3.279.6 4.599 1.04 2.12 4 2.12 4.358 0 11.996-.8v9.557q-7.278.84-11.997.84-4.958 0-8.358-2.32-3.399-2.32-4.918-6.038-1.04-2.52-1.32-5.399-.28-2.88-.28-7.358 0-4.599.24-7.558.28-3 1.24-5.519 1.32-3.559 4.599-5.798 3.319-2.24 7.998-2.24zm0 9.598q-.68 0-1.24.16-.559.12-.959.52-.36.36-.64.68-.28.28-.48 1-.16.68-.28 1.079-.08.4-.16 1.36-.04.92-.04 1.32 0 .36-.04 1.399h7.679q-.08-4.119-.64-5.439-.8-2.08-3.2-2.08z" font-weight="700" font-stretch="semi-condensed" font-size="61.425" font-family="Monoid HalfTight"/><path style="-inkscape-font-specification:'Monoid HalfTight, Bold Semi-Condensed';font-variant-ligatures:normal;font-variant-caps:normal;font-variant-numeric:normal;font-variant-east-asian:normal" d="M314.51 286.498q-4.278.6-7.677.6-3.2 0-5.839-1.16-2.6-1.16-4.239-3.16-1.28-1.519-1.92-3.558-.64-2.04-.72-3.4-.08-1.36-.08-3.759v-16.715h-10.237v-9.838h10.238v-10.237h10.237v10.237h10.238v9.838h-10.238v16.316q0 2.959.6 4.398.64 1.44 2.36 1.44 2.839 0 7.278-.6z" font-weight="700" font-stretch="semi-condensed" font-size="61.425" font-family="Monoid HalfTight"/><path d="M318.446 276.822h10.583v9.922h-10.583z" font-size="42.333"/><path style="-inkscape-font-specification:'Monoid HalfTight, Bold Semi-Condensed';font-variant-ligatures:normal;font-variant-caps:normal;font-variant-numeric:normal;font-variant-east-asian:normal" d="M338.987 258.638q3.197 0 4.603 2.233h.22v-12.375h7.056v38.806h-7.056v-1.792h-.22q-1.406 2.233-4.603 2.233-2.094 0-3.72-1.71-1.599-1.735-2.343-4.822-.579-2.48-.579-8.02 0-5.54.579-8.02.744-3.087 2.343-4.796 1.626-1.737 3.72-1.737zm3.831 7.47q-.496-.855-1.212-.855-.717 0-1.213.854-.496.827-.717 2.095-.275 1.488-.275 4.989 0 3.5.275 4.988.22 1.268.717 2.122.496.827 1.213.827.716 0 1.212-.827.496-.854.717-2.122.275-1.488.275-4.988 0-3.5-.275-4.989-.22-1.268-.717-2.095zM361.962 258.638q3.197 0 5.457 1.571 2.26 1.544 3.224 3.97.469 1.184.69 2.783.247 1.598.275 2.839.055 1.212.055 3.39v3.307h-12.32q0 2.26.414 3.17.716 1.46 2.756 1.46 3.004 0 8.268-.551v6.587q-5.016.579-8.268.579-3.418 0-5.76-1.599-2.343-1.598-3.39-4.162-.717-1.736-.91-3.72-.193-1.985-.193-5.071 0-3.17.166-5.21.193-2.067.854-3.803.91-2.453 3.17-3.996 2.287-1.544 5.512-1.544zm0 6.615q-.469 0-.855.11-.385.083-.661.359-.248.248-.441.468-.193.193-.33.69-.111.468-.194.743-.055.276-.11.937-.028.634-.028.91 0 .248-.027.964h5.292q-.056-2.838-.441-3.748-.552-1.433-2.205-1.433zM378.38 259.08q1.544 12.595 3.831 22.241h.276q2.287-9.674 3.83-22.242h7.111q-2.122 16.234-5.622 28.223h-10.914q-3.5-11.99-5.622-28.223z" font-weight="700" font-stretch="semi-condensed" font-size="42.333" font-family="Monoid HalfTight"/></g><g style="line-height:1.25;-inkscape-font-specification:'Hack, Normal';font-variant-ligatures:normal;font-variant-caps:normal;font-variant-numeric:normal;font-variant-east-asian:normal" transform="matrix(1.85836 0 0 1.83937 -239.385 -423.609)" aria-label="alganet.dev" fill="#000" filter="url(#a)"><path style="-inkscape-font-specification:'Monoid HalfTight, Bold Semi-Condensed';font-variant-ligatures:normal;font-variant-caps:normal;font-variant-numeric:normal;font-variant-east-asian:normal" d="M146.504 269.622h-2.72q-1.959 0-2.839 1.16-.84 1.12-.84 3.559 0 1.36.64 2.28.64.88 1.84.88 1.36 0 2.2-.68.88-.68 1.2-1.92.36-1.28.44-2.16.08-.88.08-2.2zm-1.28-24.754q3.44 0 6.039 1.08 2.6 1.04 4.279 3.999 1.2 2.12 1.2 6.558v29.953h-10.238v-2.12h-.4q-2.24 2.76-5.678 2.76-4.24 0-7.399-3.64-3.159-3.638-3.159-9.037 0-5.879 3.52-9.678 1.279-1.36 2.719-2.2 1.48-.879 2.999-1.199 1.56-.32 2.48-.4.96-.08 2.279-.08h2.64v-4.159q0-.8-.68-1.48-.68-.72-1.76-.72-3.68 0-10.358.76v-9.637q6.599-.76 11.517-.76z" font-weight="700" font-stretch="semi-condensed" font-size="61.425" font-family="Monoid HalfTight"/><path style="-inkscape-font-specification:'Monoid HalfTight, Bold Semi-Condensed';font-variant-ligatures:normal;font-variant-caps:normal;font-variant-numeric:normal;font-variant-east-asian:normal" d="M179.488 287.711q-4.279.6-7.678.6-3.199 0-5.838-1.16-2.6-1.16-4.24-3.159-1.279-1.52-1.919-3.559-.64-2.04-.72-3.399-.08-1.36-.08-3.759v-32.072h-10.237v-9.838h20.475v41.51q0 2.96.6 4.399.64 1.44 2.36 1.44 2.838 0 7.277-.6z" font-weight="700" font-stretch="semi-condensed" font-size="61.425" font-family="Monoid HalfTight"/><path style="-inkscape-font-specification:'Monoid HalfTight, Bold Semi-Condensed';font-variant-ligatures:normal;font-variant-caps:normal;font-variant-numeric:normal;font-variant-east-asian:normal" d="M192.744 278.74h-.4q-2.319 3.239-5.598 3.239-4.439 0-6.838-3.24-3.8-5.078-3.8-15.315 0-10.238 3.8-15.317 2.399-3.239 6.838-3.239 3.28 0 5.599 3.24h.4v-2.6h10.237v34.551q0 6.839-2.44 10.918-1.8 2.959-5.118 4.639-3.32 1.72-8.038 1.72-4.64 0-9.438-.6v-9.598q5.399.6 9.438.6 2.88 0 4.119-2.2 1.24-2.2 1.24-5.479zm-5.078-23.074q-1.32 2.039-1.32 7.758 0 5.718 1.32 7.758.76 1.2 1.88 1.2 1.119 0 1.879-1.2 1.32-2.04 1.32-7.758 0-5.719-1.32-7.758-.76-1.2-1.88-1.2-1.12 0-1.88 1.2zM221.576 269.622h-2.72q-1.959 0-2.839 1.16-.84 1.12-.84 3.559 0 1.36.64 2.28.64.88 1.84.88 1.36 0 2.2-.68.879-.68 1.199-1.92.36-1.28.44-2.16.08-.88.08-2.2zm-1.28-24.754q3.44 0 6.039 1.08 2.599 1.04 4.279 3.999 1.2 2.12 1.2 6.558v29.953h-10.238v-2.12h-.4q-2.24 2.76-5.679 2.76-4.239 0-7.398-3.64-3.159-3.638-3.159-9.037 0-5.879 3.52-9.678 1.279-1.36 2.718-2.2 1.48-.879 3-1.199 1.56-.32 2.479-.4.96-.08 2.28-.08h2.639v-4.159q0-.8-.68-1.48-.68-.72-1.76-.72-3.679 0-10.357.76v-9.637q6.598-.76 11.517-.76zM250.997 244.868q4.279 0 6.918 4.28.96 1.599 1.44 3.678.52 2.08.56 3.48.08 1.36.08 3.878v26.274h-10.238v-26.274q0-3.239-.6-4.358-.76-1.36-1.959-1.36-1.2 0-1.96 1.36-.6 1.12-.6 4.358v26.274h-10.237v-40.95h10.238v2.48h.28q1.12-1.44 2.759-2.28 1.64-.84 3.32-.84zM276.135 244.868q4.64 0 7.919 2.28 3.279 2.24 4.678 5.758.68 1.72 1 4.04.36 2.319.4 4.118.08 1.76.08 4.919v4.799h-17.876q0 3.279.6 4.599 1.04 2.12 4 2.12 4.358 0 11.996-.8v9.557q-7.278.84-11.997.84-4.958 0-8.358-2.32-3.399-2.32-4.918-6.038-1.04-2.52-1.32-5.399-.28-2.88-.28-7.358 0-4.599.24-7.558.28-3 1.24-5.519 1.32-3.559 4.599-5.798 3.319-2.24 7.998-2.24zm0 9.598q-.68 0-1.24.16-.559.12-.959.52-.36.36-.64.68-.28.28-.48 1-.16.68-.28 1.079-.08.4-.16 1.36-.04.92-.04 1.32 0 .36-.04 1.399h7.679q-.08-4.119-.64-5.439-.8-2.08-3.2-2.08z" font-weight="700" font-stretch="semi-condensed" font-size="61.425" font-family="Monoid HalfTight"/><path style="-inkscape-font-specification:'Monoid HalfTight, Bold Semi-Condensed';font-variant-ligatures:normal;font-variant-caps:normal;font-variant-numeric:normal;font-variant-east-asian:normal" d="M314.51 286.498q-4.278.6-7.677.6-3.2 0-5.839-1.16-2.6-1.16-4.239-3.16-1.28-1.519-1.92-3.558-.64-2.04-.72-3.4-.08-1.36-.08-3.759v-16.715h-10.237v-9.838h10.238v-10.237h10.237v10.237h10.238v9.838h-10.238v16.316q0 2.959.6 4.398.64 1.44 2.36 1.44 2.839 0 7.278-.6z" font-weight="700" font-stretch="semi-condensed" font-size="61.425" font-family="Monoid HalfTight"/><path d="M318.446 276.822h10.583v9.922h-10.583z" font-size="42.333"/><path style="-inkscape-font-specification:'Monoid HalfTight, Bold Semi-Condensed';font-variant-ligatures:normal;font-variant-caps:normal;font-variant-numeric:normal;font-variant-east-asian:normal" d="M338.987 258.638q3.197 0 4.603 2.233h.22v-12.375h7.056v38.806h-7.056v-1.792h-.22q-1.406 2.233-4.603 2.233-2.094 0-3.72-1.71-1.599-1.735-2.343-4.822-.579-2.48-.579-8.02 0-5.54.579-8.02.744-3.087 2.343-4.796 1.626-1.737 3.72-1.737zm3.831 7.47q-.496-.855-1.212-.855-.717 0-1.213.854-.496.827-.717 2.095-.275 1.488-.275 4.989 0 3.5.275 4.988.22 1.268.717 2.122.496.827 1.213.827.716 0 1.212-.827.496-.854.717-2.122.275-1.488.275-4.988 0-3.5-.275-4.989-.22-1.268-.717-2.095zM361.962 258.638q3.197 0 5.457 1.571 2.26 1.544 3.224 3.97.469 1.184.69 2.783.247 1.598.275 2.839.055 1.212.055 3.39v3.307h-12.32q0 2.26.414 3.17.716 1.46 2.756 1.46 3.004 0 8.268-.551v6.587q-5.016.579-8.268.579-3.418 0-5.76-1.599-2.343-1.598-3.39-4.162-.717-1.736-.91-3.72-.193-1.985-.193-5.071 0-3.17.166-5.21.193-2.067.854-3.803.91-2.453 3.17-3.996 2.287-1.544 5.512-1.544zm0 6.615q-.469 0-.855.11-.385.083-.661.359-.248.248-.441.468-.193.193-.33.69-.111.468-.194.743-.055.276-.11.937-.028.634-.028.91 0 .248-.027.964h5.292q-.056-2.838-.441-3.748-.552-1.433-2.205-1.433zM378.38 259.08q1.544 12.595 3.831 22.241h.276q2.287-9.674 3.83-22.242h7.111q-2.122 16.234-5.622 28.223h-10.914q-3.5-11.99-5.622-28.223z" font-weight="700" font-stretch="semi-condensed" font-size="42.333" font-family="Monoid HalfTight"/></g><g style="line-height:1.25;-inkscape-font-specification:'Hack, Normal';font-variant-ligatures:normal;font-variant-caps:normal;font-variant-numeric:normal;font-variant-east-asian:normal" transform="matrix(1.85836 0 0 1.83937 -238.407 -422.63)" aria-label="alganet.dev" fill="#000" filter="url(#a)"><path style="-inkscape-font-specification:'Monoid HalfTight, Bold Semi-Condensed';font-variant-ligatures:normal;font-variant-caps:normal;font-variant-numeric:normal;font-variant-east-asian:normal" d="M146.504 269.622h-2.72q-1.959 0-2.839 1.16-.84 1.12-.84 3.559 0 1.36.64 2.28.64.88 1.84.88 1.36 0 2.2-.68.88-.68 1.2-1.92.36-1.28.44-2.16.08-.88.08-2.2zm-1.28-24.754q3.44 0 6.039 1.08 2.6 1.04 4.279 3.999 1.2 2.12 1.2 6.558v29.953h-10.238v-2.12h-.4q-2.24 2.76-5.678 2.76-4.24 0-7.399-3.64-3.159-3.638-3.159-9.037 0-5.879 3.52-9.678 1.279-1.36 2.719-2.2 1.48-.879 2.999-1.199 1.56-.32 2.48-.4.96-.08 2.279-.08h2.64v-4.159q0-.8-.68-1.48-.68-.72-1.76-.72-3.68 0-10.358.76v-9.637q6.599-.76 11.517-.76z" font-weight="700" font-stretch="semi-condensed" font-size="61.425" font-family="Monoid HalfTight"/><path style="-inkscape-font-specification:'Monoid HalfTight, Bold Semi-Condensed';font-variant-ligatures:normal;font-variant-caps:normal;font-variant-numeric:normal;font-variant-east-asian:normal" d="M179.488 287.711q-4.279.6-7.678.6-3.199 0-5.838-1.16-2.6-1.16-4.24-3.159-1.279-1.52-1.919-3.559-.64-2.04-.72-3.399-.08-1.36-.08-3.759v-32.072h-10.237v-9.838h20.475v41.51q0 2.96.6 4.399.64 1.44 2.36 1.44 2.838 0 7.277-.6z" font-weight="700" font-stretch="semi-condensed" font-size="61.425" font-family="Monoid HalfTight"/><path style="-inkscape-font-specification:'Monoid HalfTight, Bold Semi-Condensed';font-variant-ligatures:normal;font-variant-caps:normal;font-variant-numeric:normal;font-variant-east-asian:normal" d="M192.744 278.74h-.4q-2.319 3.239-5.598 3.239-4.439 0-6.838-3.24-3.8-5.078-3.8-15.315 0-10.238 3.8-15.317 2.399-3.239 6.838-3.239 3.28 0 5.599 3.24h.4v-2.6h10.237v34.551q0 6.839-2.44 10.918-1.8 2.959-5.118 4.639-3.32 1.72-8.038 1.72-4.64 0-9.438-.6v-9.598q5.399.6 9.438.6 2.88 0 4.119-2.2 1.24-2.2 1.24-5.479zm-5.078-23.074q-1.32 2.039-1.32 7.758 0 5.718 1.32 7.758.76 1.2 1.88 1.2 1.119 0 1.879-1.2 1.32-2.04 1.32-7.758 0-5.719-1.32-7.758-.76-1.2-1.88-1.2-1.12 0-1.88 1.2zM221.576 269.622h-2.72q-1.959 0-2.839 1.16-.84 1.12-.84 3.559 0 1.36.64 2.28.64.88 1.84.88 1.36 0 2.2-.68.879-.68 1.199-1.92.36-1.28.44-2.16.08-.88.08-2.2zm-1.28-24.754q3.44 0 6.039 1.08 2.599 1.04 4.279 3.999 1.2 2.12 1.2 6.558v29.953h-10.238v-2.12h-.4q-2.24 2.76-5.679 2.76-4.239 0-7.398-3.64-3.159-3.638-3.159-9.037 0-5.879 3.52-9.678 1.279-1.36 2.718-2.2 1.48-.879 3-1.199 1.56-.32 2.479-.4.96-.08 2.28-.08h2.639v-4.159q0-.8-.68-1.48-.68-.72-1.76-.72-3.679 0-10.357.76v-9.637q6.598-.76 11.517-.76zM250.997 244.868q4.279 0 6.918 4.28.96 1.599 1.44 3.678.52 2.08.56 3.48.08 1.36.08 3.878v26.274h-10.238v-26.274q0-3.239-.6-4.358-.76-1.36-1.959-1.36-1.2 0-1.96 1.36-.6 1.12-.6 4.358v26.274h-10.237v-40.95h10.238v2.48h.28q1.12-1.44 2.759-2.28 1.64-.84 3.32-.84zM276.135 244.868q4.64 0 7.919 2.28 3.279 2.24 4.678 5.758.68 1.72 1 4.04.36 2.319.4 4.118.08 1.76.08 4.919v4.799h-17.876q0 3.279.6 4.599 1.04 2.12 4 2.12 4.358 0 11.996-.8v9.557q-7.278.84-11.997.84-4.958 0-8.358-2.32-3.399-2.32-4.918-6.038-1.04-2.52-1.32-5.399-.28-2.88-.28-7.358 0-4.599.24-7.558.28-3 1.24-5.519 1.32-3.559 4.599-5.798 3.319-2.24 7.998-2.24zm0 9.598q-.68 0-1.24.16-.559.12-.959.52-.36.36-.64.68-.28.28-.48 1-.16.68-.28 1.079-.08.4-.16 1.36-.04.92-.04 1.32 0 .36-.04 1.399h7.679q-.08-4.119-.64-5.439-.8-2.08-3.2-2.08z" font-weight="700" font-stretch="semi-condensed" font-size="61.425" font-family="Monoid HalfTight"/><path style="-inkscape-font-specification:'Monoid HalfTight, Bold Semi-Condensed';font-variant-ligatures:normal;font-variant-caps:normal;font-variant-numeric:normal;font-variant-east-asian:normal" d="M314.51 286.498q-4.278.6-7.677.6-3.2 0-5.839-1.16-2.6-1.16-4.239-3.16-1.28-1.519-1.92-3.558-.64-2.04-.72-3.4-.08-1.36-.08-3.759v-16.715h-10.237v-9.838h10.238v-10.237h10.237v10.237h10.238v9.838h-10.238v16.316q0 2.959.6 4.398.64 1.44 2.36 1.44 2.839 0 7.278-.6z" font-weight="700" font-stretch="semi-condensed" font-size="61.425" font-family="Monoid HalfTight"/><path d="M318.446 276.822h10.583v9.922h-10.583z" font-size="42.333"/><path style="-inkscape-font-specification:'Monoid HalfTight, Bold Semi-Condensed';font-variant-ligatures:normal;font-variant-caps:normal;font-variant-numeric:normal;font-variant-east-asian:normal" d="M338.987 258.638q3.197 0 4.603 2.233h.22v-12.375h7.056v38.806h-7.056v-1.792h-.22q-1.406 2.233-4.603 2.233-2.094 0-3.72-1.71-1.599-1.735-2.343-4.822-.579-2.48-.579-8.02 0-5.54.579-8.02.744-3.087 2.343-4.796 1.626-1.737 3.72-1.737zm3.831 7.47q-.496-.855-1.212-.855-.717 0-1.213.854-.496.827-.717 2.095-.275 1.488-.275 4.989 0 3.5.275 4.988.22 1.268.717 2.122.496.827 1.213.827.716 0 1.212-.827.496-.854.717-2.122.275-1.488.275-4.988 0-3.5-.275-4.989-.22-1.268-.717-2.095zM361.962 258.638q3.197 0 5.457 1.571 2.26 1.544 3.224 3.97.469 1.184.69 2.783.247 1.598.275 2.839.055 1.212.055 3.39v3.307h-12.32q0 2.26.414 3.17.716 1.46 2.756 1.46 3.004 0 8.268-.551v6.587q-5.016.579-8.268.579-3.418 0-5.76-1.599-2.343-1.598-3.39-4.162-.717-1.736-.91-3.72-.193-1.985-.193-5.071 0-3.17.166-5.21.193-2.067.854-3.803.91-2.453 3.17-3.996 2.287-1.544 5.512-1.544zm0 6.615q-.469 0-.855.11-.385.083-.661.359-.248.248-.441.468-.193.193-.33.69-.111.468-.194.743-.055.276-.11.937-.028.634-.028.91 0 .248-.027.964h5.292q-.056-2.838-.441-3.748-.552-1.433-2.205-1.433zM378.38 259.08q1.544 12.595 3.831 22.241h.276q2.287-9.674 3.83-22.242h7.111q-2.122 16.234-5.622 28.223h-10.914q-3.5-11.99-5.622-28.223z" font-weight="700" font-stretch="semi-condensed" font-size="42.333" font-family="Monoid HalfTight"/></g><g style="line-height:1.25;-inkscape-font-specification:'Hack, Normal';font-variant-ligatures:normal;font-variant-caps:normal;font-variant-numeric:normal;font-variant-east-asian:normal" transform="matrix(1.85836 0 0 1.83937 -237.428 -421.652)" aria-label="alganet.dev" fill="#000" filter="url(#a)"><path style="-inkscape-font-specification:'Monoid HalfTight, Bold Semi-Condensed';font-variant-ligatures:normal;font-variant-caps:normal;font-variant-numeric:normal;font-variant-east-asian:normal" d="M146.504 269.622h-2.72q-1.959 0-2.839 1.16-.84 1.12-.84 3.559 0 1.36.64 2.28.64.88 1.84.88 1.36 0 2.2-.68.88-.68 1.2-1.92.36-1.28.44-2.16.08-.88.08-2.2zm-1.28-24.754q3.44 0 6.039 1.08 2.6 1.04 4.279 3.999 1.2 2.12 1.2 6.558v29.953h-10.238v-2.12h-.4q-2.24 2.76-5.678 2.76-4.24 0-7.399-3.64-3.159-3.638-3.159-9.037 0-5.879 3.52-9.678 1.279-1.36 2.719-2.2 1.48-.879 2.999-1.199 1.56-.32 2.48-.4.96-.08 2.279-.08h2.64v-4.159q0-.8-.68-1.48-.68-.72-1.76-.72-3.68 0-10.358.76v-9.637q6.599-.76 11.517-.76z" font-weight="700" font-stretch="semi-condensed" font-size="61.425" font-family="Monoid HalfTight"/><path style="-inkscape-font-specification:'Monoid HalfTight, Bold Semi-Condensed';font-variant-ligatures:normal;font-variant-caps:normal;font-variant-numeric:normal;font-variant-east-asian:normal" d="M179.488 287.711q-4.279.6-7.678.6-3.199 0-5.838-1.16-2.6-1.16-4.24-3.159-1.279-1.52-1.919-3.559-.64-2.04-.72-3.399-.08-1.36-.08-3.759v-32.072h-10.237v-9.838h20.475v41.51q0 2.96.6 4.399.64 1.44 2.36 1.44 2.838 0 7.277-.6z" font-weight="700" font-stretch="semi-condensed" font-size="61.425" font-family="Monoid HalfTight"/><path style="-inkscape-font-specification:'Monoid HalfTight, Bold Semi-Condensed';font-variant-ligatures:normal;font-variant-caps:normal;font-variant-numeric:normal;font-variant-east-asian:normal" d="M192.744 278.74h-.4q-2.319 3.239-5.598 3.239-4.439 0-6.838-3.24-3.8-5.078-3.8-15.315 0-10.238 3.8-15.317 2.399-3.239 6.838-3.239 3.28 0 5.599 3.24h.4v-2.6h10.237v34.551q0 6.839-2.44 10.918-1.8 2.959-5.118 4.639-3.32 1.72-8.038 1.72-4.64 0-9.438-.6v-9.598q5.399.6 9.438.6 2.88 0 4.119-2.2 1.24-2.2 1.24-5.479zm-5.078-23.074q-1.32 2.039-1.32 7.758 0 5.718 1.32 7.758.76 1.2 1.88 1.2 1.119 0 1.879-1.2 1.32-2.04 1.32-7.758 0-5.719-1.32-7.758-.76-1.2-1.88-1.2-1.12 0-1.88 1.2zM221.576 269.622h-2.72q-1.959 0-2.839 1.16-.84 1.12-.84 3.559 0 1.36.64 2.28.64.88 1.84.88 1.36 0 2.2-.68.879-.68 1.199-1.92.36-1.28.44-2.16.08-.88.08-2.2zm-1.28-24.754q3.44 0 6.039 1.08 2.599 1.04 4.279 3.999 1.2 2.12 1.2 6.558v29.953h-10.238v-2.12h-.4q-2.24 2.76-5.679 2.76-4.239 0-7.398-3.64-3.159-3.638-3.159-9.037 0-5.879 3.52-9.678 1.279-1.36 2.718-2.2 1.48-.879 3-1.199 1.56-.32 2.479-.4.96-.08 2.28-.08h2.639v-4.159q0-.8-.68-1.48-.68-.72-1.76-.72-3.679 0-10.357.76v-9.637q6.598-.76 11.517-.76zM250.997 244.868q4.279 0 6.918 4.28.96 1.599 1.44 3.678.52 2.08.56 3.48.08 1.36.08 3.878v26.274h-10.238v-26.274q0-3.239-.6-4.358-.76-1.36-1.959-1.36-1.2 0-1.96 1.36-.6 1.12-.6 4.358v26.274h-10.237v-40.95h10.238v2.48h.28q1.12-1.44 2.759-2.28 1.64-.84 3.32-.84zM276.135 244.868q4.64 0 7.919 2.28 3.279 2.24 4.678 5.758.68 1.72 1 4.04.36 2.319.4 4.118.08 1.76.08 4.919v4.799h-17.876q0 3.279.6 4.599 1.04 2.12 4 2.12 4.358 0 11.996-.8v9.557q-7.278.84-11.997.84-4.958 0-8.358-2.32-3.399-2.32-4.918-6.038-1.04-2.52-1.32-5.399-.28-2.88-.28-7.358 0-4.599.24-7.558.28-3 1.24-5.519 1.32-3.559 4.599-5.798 3.319-2.24 7.998-2.24zm0 9.598q-.68 0-1.24.16-.559.12-.959.52-.36.36-.64.68-.28.28-.48 1-.16.68-.28 1.079-.08.4-.16 1.36-.04.92-.04 1.32 0 .36-.04 1.399h7.679q-.08-4.119-.64-5.439-.8-2.08-3.2-2.08z" font-weight="700" font-stretch="semi-condensed" font-size="61.425" font-family="Monoid HalfTight"/><path style="-inkscape-font-specification:'Monoid HalfTight, Bold Semi-Condensed';font-variant-ligatures:normal;font-variant-caps:normal;font-variant-numeric:normal;font-variant-east-asian:normal" d="M314.51 286.498q-4.278.6-7.677.6-3.2 0-5.839-1.16-2.6-1.16-4.239-3.16-1.28-1.519-1.92-3.558-.64-2.04-.72-3.4-.08-1.36-.08-3.759v-16.715h-10.237v-9.838h10.238v-10.237h10.237v10.237h10.238v9.838h-10.238v16.316q0 2.959.6 4.398.64 1.44 2.36 1.44 2.839 0 7.278-.6z" font-weight="700" font-stretch="semi-condensed" font-size="61.425" font-family="Monoid HalfTight"/><path d="M318.446 276.822h10.583v9.922h-10.583z" font-size="42.333"/><path style="-inkscape-font-specification:'Monoid HalfTight, Bold Semi-Condensed';font-variant-ligatures:normal;font-variant-caps:normal;font-variant-numeric:normal;font-variant-east-asian:normal" d="M338.987 258.638q3.197 0 4.603 2.233h.22v-12.375h7.056v38.806h-7.056v-1.792h-.22q-1.406 2.233-4.603 2.233-2.094 0-3.72-1.71-1.599-1.735-2.343-4.822-.579-2.48-.579-8.02 0-5.54.579-8.02.744-3.087 2.343-4.796 1.626-1.737 3.72-1.737zm3.831 7.47q-.496-.855-1.212-.855-.717 0-1.213.854-.496.827-.717 2.095-.275 1.488-.275 4.989 0 3.5.275 4.988.22 1.268.717 2.122.496.827 1.213.827.716 0 1.212-.827.496-.854.717-2.122.275-1.488.275-4.988 0-3.5-.275-4.989-.22-1.268-.717-2.095zM361.962 258.638q3.197 0 5.457 1.571 2.26 1.544 3.224 3.97.469 1.184.69 2.783.247 1.598.275 2.839.055 1.212.055 3.39v3.307h-12.32q0 2.26.414 3.17.716 1.46 2.756 1.46 3.004 0 8.268-.551v6.587q-5.016.579-8.268.579-3.418 0-5.76-1.599-2.343-1.598-3.39-4.162-.717-1.736-.91-3.72-.193-1.985-.193-5.071 0-3.17.166-5.21.193-2.067.854-3.803.91-2.453 3.17-3.996 2.287-1.544 5.512-1.544zm0 6.615q-.469 0-.855.11-.385.083-.661.359-.248.248-.441.468-.193.193-.33.69-.111.468-.194.743-.055.276-.11.937-.028.634-.028.91 0 .248-.027.964h5.292q-.056-2.838-.441-3.748-.552-1.433-2.205-1.433zM378.38 259.08q1.544 12.595 3.831 22.241h.276q2.287-9.674 3.83-22.242h7.111q-2.122 16.234-5.622 28.223h-10.914q-3.5-11.99-5.622-28.223z" font-weight="700" font-stretch="semi-condensed" font-size="42.333" font-family="Monoid HalfTight"/></g><g style="line-height:1.25;-inkscape-font-specification:'Hack, Normal';font-variant-ligatures:normal;font-variant-caps:normal;font-variant-numeric:normal;font-variant-east-asian:normal" transform="matrix(1.85836 0 0 1.83937 -241.342 -425.565)" aria-label="alganet.dev" fill="#d55541" filter="url(#a)"><path style="-inkscape-font-specification:'Monoid HalfTight, Bold Semi-Condensed';font-variant-ligatures:normal;font-variant-caps:normal;font-variant-numeric:normal;font-variant-east-asian:normal" d="M146.504 269.622h-2.72q-1.959 0-2.839 1.16-.84 1.12-.84 3.559 0 1.36.64 2.28.64.88 1.84.88 1.36 0 2.2-.68.88-.68 1.2-1.92.36-1.28.44-2.16.08-.88.08-2.2zm-1.28-24.754q3.44 0 6.039 1.08 2.6 1.04 4.279 3.999 1.2 2.12 1.2 6.558v29.953h-10.238v-2.12h-.4q-2.24 2.76-5.678 2.76-4.24 0-7.399-3.64-3.159-3.638-3.159-9.037 0-5.879 3.52-9.678 1.279-1.36 2.719-2.2 1.48-.879 2.999-1.199 1.56-.32 2.48-.4.96-.08 2.279-.08h2.64v-4.159q0-.8-.68-1.48-.68-.72-1.76-.72-3.68 0-10.358.76v-9.637q6.599-.76 11.517-.76z" font-weight="700" font-stretch="semi-condensed" font-size="61.425" font-family="Monoid HalfTight"/><path style="-inkscape-font-specification:'Monoid HalfTight, Bold Semi-Condensed';font-variant-ligatures:normal;font-variant-caps:normal;font-variant-numeric:normal;font-variant-east-asian:normal" d="M179.488 287.711q-4.279.6-7.678.6-3.199 0-5.838-1.16-2.6-1.16-4.24-3.159-1.279-1.52-1.919-3.559-.64-2.04-.72-3.399-.08-1.36-.08-3.759v-32.072h-10.237v-9.838h20.475v41.51q0 2.96.6 4.399.64 1.44 2.36 1.44 2.838 0 7.277-.6z" font-weight="700" font-stretch="semi-condensed" font-size="61.425" font-family="Monoid HalfTight"/><path style="-inkscape-font-specification:'Monoid HalfTight, Bold Semi-Condensed';font-variant-ligatures:normal;font-variant-caps:normal;font-variant-numeric:normal;font-variant-east-asian:normal" d="M192.744 278.74h-.4q-2.319 3.239-5.598 3.239-4.439 0-6.838-3.24-3.8-5.078-3.8-15.315 0-10.238 3.8-15.317 2.399-3.239 6.838-3.239 3.28 0 5.599 3.24h.4v-2.6h10.237v34.551q0 6.839-2.44 10.918-1.8 2.959-5.118 4.639-3.32 1.72-8.038 1.72-4.64 0-9.438-.6v-9.598q5.399.6 9.438.6 2.88 0 4.119-2.2 1.24-2.2 1.24-5.479zm-5.078-23.074q-1.32 2.039-1.32 7.758 0 5.718 1.32 7.758.76 1.2 1.88 1.2 1.119 0 1.879-1.2 1.32-2.04 1.32-7.758 0-5.719-1.32-7.758-.76-1.2-1.88-1.2-1.12 0-1.88 1.2zM221.576 269.622h-2.72q-1.959 0-2.839 1.16-.84 1.12-.84 3.559 0 1.36.64 2.28.64.88 1.84.88 1.36 0 2.2-.68.879-.68 1.199-1.92.36-1.28.44-2.16.08-.88.08-2.2zm-1.28-24.754q3.44 0 6.039 1.08 2.599 1.04 4.279 3.999 1.2 2.12 1.2 6.558v29.953h-10.238v-2.12h-.4q-2.24 2.76-5.679 2.76-4.239 0-7.398-3.64-3.159-3.638-3.159-9.037 0-5.879 3.52-9.678 1.279-1.36 2.718-2.2 1.48-.879 3-1.199 1.56-.32 2.479-.4.96-.08 2.28-.08h2.639v-4.159q0-.8-.68-1.48-.68-.72-1.76-.72-3.679 0-10.357.76v-9.637q6.598-.76 11.517-.76zM250.997 244.868q4.279 0 6.918 4.28.96 1.599 1.44 3.678.52 2.08.56 3.48.08 1.36.08 3.878v26.274h-10.238v-26.274q0-3.239-.6-4.358-.76-1.36-1.959-1.36-1.2 0-1.96 1.36-.6 1.12-.6 4.358v26.274h-10.237v-40.95h10.238v2.48h.28q1.12-1.44 2.759-2.28 1.64-.84 3.32-.84zM276.135 244.868q4.64 0 7.919 2.28 3.279 2.24 4.678 5.758.68 1.72 1 4.04.36 2.319.4 4.118.08 1.76.08 4.919v4.799h-17.876q0 3.279.6 4.599 1.04 2.12 4 2.12 4.358 0 11.996-.8v9.557q-7.278.84-11.997.84-4.958 0-8.358-2.32-3.399-2.32-4.918-6.038-1.04-2.52-1.32-5.399-.28-2.88-.28-7.358 0-4.599.24-7.558.28-3 1.24-5.519 1.32-3.559 4.599-5.798 3.319-2.24 7.998-2.24zm0 9.598q-.68 0-1.24.16-.559.12-.959.52-.36.36-.64.68-.28.28-.48 1-.16.68-.28 1.079-.08.4-.16 1.36-.04.92-.04 1.32 0 .36-.04 1.399h7.679q-.08-4.119-.64-5.439-.8-2.08-3.2-2.08z" font-weight="700" font-stretch="semi-condensed" font-size="61.425" font-family="Monoid HalfTight"/><path style="-inkscape-font-specification:'Monoid HalfTight, Bold Semi-Condensed';font-variant-ligatures:normal;font-variant-caps:normal;font-variant-numeric:normal;font-variant-east-asian:normal" d="M314.51 286.498q-4.278.6-7.677.6-3.2 0-5.839-1.16-2.6-1.16-4.239-3.16-1.28-1.519-1.92-3.558-.64-2.04-.72-3.4-.08-1.36-.08-3.759v-16.715h-10.237v-9.838h10.238v-10.237h10.237v10.237h10.238v9.838h-10.238v16.316q0 2.959.6 4.398.64 1.44 2.36 1.44 2.839 0 7.278-.6z" font-weight="700" font-stretch="semi-condensed" font-size="61.425" font-family="Monoid HalfTight"/><path d="M318.446 276.822h10.583v9.922h-10.583z" font-size="42.333"/><path style="-inkscape-font-specification:'Monoid HalfTight, Bold Semi-Condensed';font-variant-ligatures:normal;font-variant-caps:normal;font-variant-numeric:normal;font-variant-east-asian:normal" d="M338.987 258.638q3.197 0 4.603 2.233h.22v-12.375h7.056v38.806h-7.056v-1.792h-.22q-1.406 2.233-4.603 2.233-2.094 0-3.72-1.71-1.599-1.735-2.343-4.822-.579-2.48-.579-8.02 0-5.54.579-8.02.744-3.087 2.343-4.796 1.626-1.737 3.72-1.737zm3.831 7.47q-.496-.855-1.212-.855-.717 0-1.213.854-.496.827-.717 2.095-.275 1.488-.275 4.989 0 3.5.275 4.988.22 1.268.717 2.122.496.827 1.213.827.716 0 1.212-.827.496-.854.717-2.122.275-1.488.275-4.988 0-3.5-.275-4.989-.22-1.268-.717-2.095zM361.962 258.638q3.197 0 5.457 1.571 2.26 1.544 3.224 3.97.469 1.184.69 2.783.247 1.598.275 2.839.055 1.212.055 3.39v3.307h-12.32q0 2.26.414 3.17.716 1.46 2.756 1.46 3.004 0 8.268-.551v6.587q-5.016.579-8.268.579-3.418 0-5.76-1.599-2.343-1.598-3.39-4.162-.717-1.736-.91-3.72-.193-1.985-.193-5.071 0-3.17.166-5.21.193-2.067.854-3.803.91-2.453 3.17-3.996 2.287-1.544 5.512-1.544zm0 6.615q-.469 0-.855.11-.385.083-.661.359-.248.248-.441.468-.193.193-.33.69-.111.468-.194.743-.055.276-.11.937-.028.634-.028.91 0 .248-.027.964h5.292q-.056-2.838-.441-3.748-.552-1.433-2.205-1.433zM378.38 259.08q1.544 12.595 3.831 22.241h.276q2.287-9.674 3.83-22.242h7.111q-2.122 16.234-5.622 28.223h-10.914q-3.5-11.99-5.622-28.223z" font-weight="700" font-stretch="semi-condensed" font-size="42.333" font-family="Monoid HalfTight"/></g></g></g></svg>